<svg xmlns="http://www.w3.org/2000/svg" version="1.1" xmlns:xlink="http://www.w3.org/1999/xlink" width="36" height="36" x="0" y="0" viewBox="0 0 3000 3000" style="enable-background:new 0 0 512 512" xml:space="preserve" fill-rule="evenodd" class=""><g><clipPath id="a"><path d="M1500 0c828 0 1500 672 1500 1500s-672 1500-1500 1500S0 2328 0 1500 672 0 1500 0z" fill="#000000" opacity="1" data-original="#000000"></path></clipPath><path fill="#fcb342" d="M1500 0c828 0 1500 672 1500 1500s-672 1500-1500 1500S0 2328 0 1500 672 0 1500 0z" opacity="1" data-original="#fcb342" class=""></path><g fill="#fc9135" clip-path="url(#a)"><path d="m2103 1179 3786 3787v428L2103 1608z" fill="#fc9135" opacity="1" data-original="#fc9135"></path><path d="m2152 1619 3786 3786 5 5 3 6 2 7 1 7v262L2163 1906v-262l-1-7-2-7-3-6z" fill="#fc9135" opacity="1" data-original="#fc9135"></path><path d="m2163 1906 3786 3786v412l-1 7-2 7-3 6-5 5-5 4-6 4-7 2-7 1h-246L1881 2353h253l7-2 6-4 5-4 5-5 3-7 2-6 1-7zM995 2145l3787 3786h-91l-7-1-7-2-7-3-7-3-6-4-6-4-5-5L859 2123l6 4 6 5 6 4 7 3 6 2 8 2 7 1 8 1z" fill="#fc9135" opacity="1" data-original="#fc9135"></path><path d="m1279 2303 3786 3786h-215l-8-1-7-2-7-3-7-3-6-4-6-4-5-5-3786-3786 5 5 6 4 6 4 7 3 7 3 7 1 7 2h8z" fill="#fc9135" opacity="1" data-original="#fc9135"></path><path d="m1881 2353 3786 3787h-566l-7-1-7-2-6-4-6-4-3786-3786 5 4 7 4 6 2h7z" fill="#fc9135" opacity="1" data-original="#fc9135"></path><path d="m1728 805 375 374v429h24c20 0 36 16 36 36v674c0 19-16 35-36 35h-813c-19 0-35-16-35-35v-15h-208c-42 0-76-34-76-76v-82h-82c-42 0-76-34-76-76V722c0-41 34-75 76-75h657z" fill="#fc9135" opacity="1" data-original="#fc9135"></path></g><path fill="#dde2ef" d="m1728 805-535 1340H913c-42 0-76-34-76-76V722c0-41 34-75 76-75h657z" opacity="1" data-original="#dde2ef"></path><path fill="#eff2f9" d="M995 1807V880c0-41 34-75 76-75h657l375 374v1048c0 42-34 76-76 76h-956c-42 0-76-34-76-76z" opacity="1" data-original="#eff2f9"></path><g fill="#e2e7f6"><path d="M1728 805v299c0 41 34 75 76 75h299zM1154 915h370v221h-370zM1173 1358c-9 0-17-8-17-17s8-16 17-16h752c9 0 17 7 17 16s-8 17-17 17zM1173 1507c-9 0-17-7-17-16 0-10 8-17 17-17h752c9 0 17 7 17 17 0 9-8 16-17 16z" fill="#e2e7f6" opacity="1" data-original="#e2e7f6"></path></g><rect width="884" height="745" x="1279" y="1608" fill="#8db5ff" rx="36" opacity="1" data-original="#8db5ff"></rect><path fill="#559b2d" d="M2163 1906v412c0 19-16 35-36 35h-246l-206-227 343-380z" opacity="1" data-original="#559b2d"></path><path fill="#7bdf45" d="M1881 2353h-567c-19 0-35-16-35-35v-223l184-205z" opacity="1" data-original="#7bdf45"></path><circle cx="1691" cy="1777" r="84" fill="#ffdc1d" opacity="1" data-original="#ffdc1d"></circle></g></svg>